<mxfile host="app.diagrams.net" modified="2022-06-05T03:21:02.707Z" agent="5.0 (X11)" etag="e0zm2r75JhKN2c6oTM_b" version="18.2.0" type="github">
  <diagram id="02HbRlREKuIdZ8K_Rs8y" name="Page-1">
    <mxGraphModel dx="1209" dy="644" grid="1" gridSize="10" guides="1" tooltips="1" connect="1" arrows="1" fold="1" page="1" pageScale="1" pageWidth="850" pageHeight="1100" math="0" shadow="0">
      <root>
        <mxCell id="0" />
        <mxCell id="1" parent="0" />
        <mxCell id="dLjgmCrHU0kRAioY88x8-25" value="Users" style="shape=table;startSize=30;container=1;collapsible=0;childLayout=tableLayout;fontStyle=1;align=center;fillColor=#f5f5f5;fontColor=#333333;strokeColor=#666666;" vertex="1" parent="1">
          <mxGeometry x="40" y="40" width="340" height="210" as="geometry" />
        </mxCell>
        <mxCell id="dLjgmCrHU0kRAioY88x8-26" value="" style="shape=tableRow;horizontal=0;startSize=0;swimlaneHead=0;swimlaneBody=0;top=0;left=0;bottom=0;right=0;collapsible=0;dropTarget=0;fillColor=none;points=[[0,0.5],[1,0.5]];portConstraint=eastwest;" vertex="1" parent="dLjgmCrHU0kRAioY88x8-25">
          <mxGeometry y="30" width="340" height="36" as="geometry" />
        </mxCell>
        <mxCell id="dLjgmCrHU0kRAioY88x8-27" value="user_id" style="shape=partialRectangle;html=1;whiteSpace=wrap;connectable=0;fillColor=#dae8fc;top=0;left=0;bottom=0;right=0;overflow=hidden;strokeColor=#6c8ebf;" vertex="1" parent="dLjgmCrHU0kRAioY88x8-26">
          <mxGeometry width="61" height="36" as="geometry">
            <mxRectangle width="61" height="36" as="alternateBounds" />
          </mxGeometry>
        </mxCell>
        <mxCell id="dLjgmCrHU0kRAioY88x8-28" value="PK UUID" style="shape=partialRectangle;html=1;whiteSpace=wrap;connectable=0;fillColor=#dae8fc;top=0;left=0;bottom=0;right=0;overflow=hidden;strokeColor=#6c8ebf;" vertex="1" parent="dLjgmCrHU0kRAioY88x8-26">
          <mxGeometry x="61" width="149" height="36" as="geometry">
            <mxRectangle width="149" height="36" as="alternateBounds" />
          </mxGeometry>
        </mxCell>
        <mxCell id="dLjgmCrHU0kRAioY88x8-29" value="Unique, default:UUIDV4" style="shape=partialRectangle;html=1;whiteSpace=wrap;connectable=0;fillColor=#dae8fc;top=0;left=0;bottom=0;right=0;overflow=hidden;strokeColor=#6c8ebf;" vertex="1" parent="dLjgmCrHU0kRAioY88x8-26">
          <mxGeometry x="210" width="130" height="36" as="geometry">
            <mxRectangle width="130" height="36" as="alternateBounds" />
          </mxGeometry>
        </mxCell>
        <mxCell id="dLjgmCrHU0kRAioY88x8-30" value="" style="shape=tableRow;horizontal=0;startSize=0;swimlaneHead=0;swimlaneBody=0;top=0;left=0;bottom=0;right=0;collapsible=0;dropTarget=0;fillColor=none;points=[[0,0.5],[1,0.5]];portConstraint=eastwest;" vertex="1" parent="dLjgmCrHU0kRAioY88x8-25">
          <mxGeometry y="66" width="340" height="35" as="geometry" />
        </mxCell>
        <mxCell id="dLjgmCrHU0kRAioY88x8-31" value="role" style="shape=partialRectangle;html=1;whiteSpace=wrap;connectable=0;fillColor=#dae8fc;top=0;left=0;bottom=0;right=0;overflow=hidden;strokeColor=#6c8ebf;" vertex="1" parent="dLjgmCrHU0kRAioY88x8-30">
          <mxGeometry width="61" height="35" as="geometry">
            <mxRectangle width="61" height="35" as="alternateBounds" />
          </mxGeometry>
        </mxCell>
        <mxCell id="dLjgmCrHU0kRAioY88x8-32" value="ENUM(&#39;admin&#39;,&#39;regular)&#39;" style="shape=partialRectangle;html=1;whiteSpace=wrap;connectable=0;fillColor=#dae8fc;top=0;left=0;bottom=0;right=0;overflow=hidden;strokeColor=#6c8ebf;" vertex="1" parent="dLjgmCrHU0kRAioY88x8-30">
          <mxGeometry x="61" width="149" height="35" as="geometry">
            <mxRectangle width="149" height="35" as="alternateBounds" />
          </mxGeometry>
        </mxCell>
        <mxCell id="dLjgmCrHU0kRAioY88x8-33" value="default: regular" style="shape=partialRectangle;html=1;whiteSpace=wrap;connectable=0;fillColor=#dae8fc;top=0;left=0;bottom=0;right=0;overflow=hidden;strokeColor=#6c8ebf;" vertex="1" parent="dLjgmCrHU0kRAioY88x8-30">
          <mxGeometry x="210" width="130" height="35" as="geometry">
            <mxRectangle width="130" height="35" as="alternateBounds" />
          </mxGeometry>
        </mxCell>
        <mxCell id="dLjgmCrHU0kRAioY88x8-34" value="" style="shape=tableRow;horizontal=0;startSize=0;swimlaneHead=0;swimlaneBody=0;top=0;left=0;bottom=0;right=0;collapsible=0;dropTarget=0;fillColor=none;points=[[0,0.5],[1,0.5]];portConstraint=eastwest;" vertex="1" parent="dLjgmCrHU0kRAioY88x8-25">
          <mxGeometry y="101" width="340" height="36" as="geometry" />
        </mxCell>
        <mxCell id="dLjgmCrHU0kRAioY88x8-35" value="username" style="shape=partialRectangle;html=1;whiteSpace=wrap;connectable=0;fillColor=#dae8fc;top=0;left=0;bottom=0;right=0;overflow=hidden;strokeColor=#6c8ebf;" vertex="1" parent="dLjgmCrHU0kRAioY88x8-34">
          <mxGeometry width="61" height="36" as="geometry">
            <mxRectangle width="61" height="36" as="alternateBounds" />
          </mxGeometry>
        </mxCell>
        <mxCell id="dLjgmCrHU0kRAioY88x8-36" value="STRING&lt;span style=&quot;white-space: pre;&quot;&gt;	&lt;/span&gt;" style="shape=partialRectangle;html=1;whiteSpace=wrap;connectable=0;fillColor=#dae8fc;top=0;left=0;bottom=0;right=0;overflow=hidden;strokeColor=#6c8ebf;" vertex="1" parent="dLjgmCrHU0kRAioY88x8-34">
          <mxGeometry x="61" width="149" height="36" as="geometry">
            <mxRectangle width="149" height="36" as="alternateBounds" />
          </mxGeometry>
        </mxCell>
        <mxCell id="dLjgmCrHU0kRAioY88x8-37" value="not null, unique" style="shape=partialRectangle;html=1;whiteSpace=wrap;connectable=0;fillColor=#dae8fc;top=0;left=0;bottom=0;right=0;overflow=hidden;strokeColor=#6c8ebf;" vertex="1" parent="dLjgmCrHU0kRAioY88x8-34">
          <mxGeometry x="210" width="130" height="36" as="geometry">
            <mxRectangle width="130" height="36" as="alternateBounds" />
          </mxGeometry>
        </mxCell>
        <mxCell id="dLjgmCrHU0kRAioY88x8-38" style="shape=tableRow;horizontal=0;startSize=0;swimlaneHead=0;swimlaneBody=0;top=0;left=0;bottom=0;right=0;collapsible=0;dropTarget=0;fillColor=none;points=[[0,0.5],[1,0.5]];portConstraint=eastwest;" vertex="1" parent="dLjgmCrHU0kRAioY88x8-25">
          <mxGeometry y="137" width="340" height="37" as="geometry" />
        </mxCell>
        <mxCell id="dLjgmCrHU0kRAioY88x8-39" value="name" style="shape=partialRectangle;html=1;whiteSpace=wrap;connectable=0;fillColor=#dae8fc;top=0;left=0;bottom=0;right=0;overflow=hidden;strokeColor=#6c8ebf;" vertex="1" parent="dLjgmCrHU0kRAioY88x8-38">
          <mxGeometry width="61" height="37" as="geometry">
            <mxRectangle width="61" height="37" as="alternateBounds" />
          </mxGeometry>
        </mxCell>
        <mxCell id="dLjgmCrHU0kRAioY88x8-40" value="STRING" style="shape=partialRectangle;html=1;whiteSpace=wrap;connectable=0;fillColor=#dae8fc;top=0;left=0;bottom=0;right=0;overflow=hidden;strokeColor=#6c8ebf;" vertex="1" parent="dLjgmCrHU0kRAioY88x8-38">
          <mxGeometry x="61" width="149" height="37" as="geometry">
            <mxRectangle width="149" height="37" as="alternateBounds" />
          </mxGeometry>
        </mxCell>
        <mxCell id="dLjgmCrHU0kRAioY88x8-41" value="not null" style="shape=partialRectangle;html=1;whiteSpace=wrap;connectable=0;fillColor=#dae8fc;top=0;left=0;bottom=0;right=0;overflow=hidden;strokeColor=#6c8ebf;" vertex="1" parent="dLjgmCrHU0kRAioY88x8-38">
          <mxGeometry x="210" width="130" height="37" as="geometry">
            <mxRectangle width="130" height="37" as="alternateBounds" />
          </mxGeometry>
        </mxCell>
        <mxCell id="dLjgmCrHU0kRAioY88x8-42" style="shape=tableRow;horizontal=0;startSize=0;swimlaneHead=0;swimlaneBody=0;top=0;left=0;bottom=0;right=0;collapsible=0;dropTarget=0;fillColor=none;points=[[0,0.5],[1,0.5]];portConstraint=eastwest;" vertex="1" parent="dLjgmCrHU0kRAioY88x8-25">
          <mxGeometry y="174" width="340" height="36" as="geometry" />
        </mxCell>
        <mxCell id="dLjgmCrHU0kRAioY88x8-43" value="last_name" style="shape=partialRectangle;html=1;whiteSpace=wrap;connectable=0;fillColor=#dae8fc;top=0;left=0;bottom=0;right=0;overflow=hidden;strokeColor=#6c8ebf;" vertex="1" parent="dLjgmCrHU0kRAioY88x8-42">
          <mxGeometry width="61" height="36" as="geometry">
            <mxRectangle width="61" height="36" as="alternateBounds" />
          </mxGeometry>
        </mxCell>
        <mxCell id="dLjgmCrHU0kRAioY88x8-44" value="STRING" style="shape=partialRectangle;html=1;whiteSpace=wrap;connectable=0;fillColor=#dae8fc;top=0;left=0;bottom=0;right=0;overflow=hidden;strokeColor=#6c8ebf;" vertex="1" parent="dLjgmCrHU0kRAioY88x8-42">
          <mxGeometry x="61" width="149" height="36" as="geometry">
            <mxRectangle width="149" height="36" as="alternateBounds" />
          </mxGeometry>
        </mxCell>
        <mxCell id="dLjgmCrHU0kRAioY88x8-45" value="not null" style="shape=partialRectangle;html=1;whiteSpace=wrap;connectable=0;fillColor=#dae8fc;top=0;left=0;bottom=0;right=0;overflow=hidden;strokeColor=#6c8ebf;" vertex="1" parent="dLjgmCrHU0kRAioY88x8-42">
          <mxGeometry x="210" width="130" height="36" as="geometry">
            <mxRectangle width="130" height="36" as="alternateBounds" />
          </mxGeometry>
        </mxCell>
        <mxCell id="dLjgmCrHU0kRAioY88x8-46" value="Budgets" style="shape=table;startSize=30;container=1;collapsible=0;childLayout=tableLayout;fontStyle=1;align=center;fillColor=#f5f5f5;fontColor=#333333;strokeColor=#666666;" vertex="1" parent="1">
          <mxGeometry x="480" y="40" width="340" height="174" as="geometry" />
        </mxCell>
        <mxCell id="dLjgmCrHU0kRAioY88x8-47" value="" style="shape=tableRow;horizontal=0;startSize=0;swimlaneHead=0;swimlaneBody=0;top=0;left=0;bottom=0;right=0;collapsible=0;dropTarget=0;fillColor=none;points=[[0,0.5],[1,0.5]];portConstraint=eastwest;" vertex="1" parent="dLjgmCrHU0kRAioY88x8-46">
          <mxGeometry y="30" width="340" height="36" as="geometry" />
        </mxCell>
        <mxCell id="dLjgmCrHU0kRAioY88x8-48" value="budget_id" style="shape=partialRectangle;html=1;whiteSpace=wrap;connectable=0;fillColor=#dae8fc;top=0;left=0;bottom=0;right=0;overflow=hidden;strokeColor=#6c8ebf;" vertex="1" parent="dLjgmCrHU0kRAioY88x8-47">
          <mxGeometry width="80" height="36" as="geometry">
            <mxRectangle width="80" height="36" as="alternateBounds" />
          </mxGeometry>
        </mxCell>
        <mxCell id="dLjgmCrHU0kRAioY88x8-49" value="PK UUID" style="shape=partialRectangle;html=1;whiteSpace=wrap;connectable=0;fillColor=#dae8fc;top=0;left=0;bottom=0;right=0;overflow=hidden;strokeColor=#6c8ebf;" vertex="1" parent="dLjgmCrHU0kRAioY88x8-47">
          <mxGeometry x="80" width="130" height="36" as="geometry">
            <mxRectangle width="130" height="36" as="alternateBounds" />
          </mxGeometry>
        </mxCell>
        <mxCell id="dLjgmCrHU0kRAioY88x8-50" value="Unique, default:UUIDV4" style="shape=partialRectangle;html=1;whiteSpace=wrap;connectable=0;fillColor=#dae8fc;top=0;left=0;bottom=0;right=0;overflow=hidden;strokeColor=#6c8ebf;" vertex="1" parent="dLjgmCrHU0kRAioY88x8-47">
          <mxGeometry x="210" width="130" height="36" as="geometry">
            <mxRectangle width="130" height="36" as="alternateBounds" />
          </mxGeometry>
        </mxCell>
        <mxCell id="dLjgmCrHU0kRAioY88x8-51" value="" style="shape=tableRow;horizontal=0;startSize=0;swimlaneHead=0;swimlaneBody=0;top=0;left=0;bottom=0;right=0;collapsible=0;dropTarget=0;fillColor=none;points=[[0,0.5],[1,0.5]];portConstraint=eastwest;" vertex="1" parent="dLjgmCrHU0kRAioY88x8-46">
          <mxGeometry y="66" width="340" height="35" as="geometry" />
        </mxCell>
        <mxCell id="dLjgmCrHU0kRAioY88x8-52" value="user_id" style="shape=partialRectangle;html=1;whiteSpace=wrap;connectable=0;fillColor=#dae8fc;top=0;left=0;bottom=0;right=0;overflow=hidden;strokeColor=#6c8ebf;" vertex="1" parent="dLjgmCrHU0kRAioY88x8-51">
          <mxGeometry width="80" height="35" as="geometry">
            <mxRectangle width="80" height="35" as="alternateBounds" />
          </mxGeometry>
        </mxCell>
        <mxCell id="dLjgmCrHU0kRAioY88x8-53" value="FK UUID" style="shape=partialRectangle;html=1;whiteSpace=wrap;connectable=0;fillColor=#dae8fc;top=0;left=0;bottom=0;right=0;overflow=hidden;strokeColor=#6c8ebf;" vertex="1" parent="dLjgmCrHU0kRAioY88x8-51">
          <mxGeometry x="80" width="130" height="35" as="geometry">
            <mxRectangle width="130" height="35" as="alternateBounds" />
          </mxGeometry>
        </mxCell>
        <mxCell id="dLjgmCrHU0kRAioY88x8-54" value="not null" style="shape=partialRectangle;html=1;whiteSpace=wrap;connectable=0;fillColor=#dae8fc;top=0;left=0;bottom=0;right=0;overflow=hidden;strokeColor=#6c8ebf;" vertex="1" parent="dLjgmCrHU0kRAioY88x8-51">
          <mxGeometry x="210" width="130" height="35" as="geometry">
            <mxRectangle width="130" height="35" as="alternateBounds" />
          </mxGeometry>
        </mxCell>
        <mxCell id="dLjgmCrHU0kRAioY88x8-55" value="" style="shape=tableRow;horizontal=0;startSize=0;swimlaneHead=0;swimlaneBody=0;top=0;left=0;bottom=0;right=0;collapsible=0;dropTarget=0;fillColor=none;points=[[0,0.5],[1,0.5]];portConstraint=eastwest;" vertex="1" parent="dLjgmCrHU0kRAioY88x8-46">
          <mxGeometry y="101" width="340" height="36" as="geometry" />
        </mxCell>
        <mxCell id="dLjgmCrHU0kRAioY88x8-56" value="name" style="shape=partialRectangle;html=1;whiteSpace=wrap;connectable=0;fillColor=#dae8fc;top=0;left=0;bottom=0;right=0;overflow=hidden;strokeColor=#6c8ebf;" vertex="1" parent="dLjgmCrHU0kRAioY88x8-55">
          <mxGeometry width="80" height="36" as="geometry">
            <mxRectangle width="80" height="36" as="alternateBounds" />
          </mxGeometry>
        </mxCell>
        <mxCell id="dLjgmCrHU0kRAioY88x8-57" value="STRING&lt;span style=&quot;white-space: pre;&quot;&gt;	&lt;/span&gt;" style="shape=partialRectangle;html=1;whiteSpace=wrap;connectable=0;fillColor=#dae8fc;top=0;left=0;bottom=0;right=0;overflow=hidden;strokeColor=#6c8ebf;" vertex="1" parent="dLjgmCrHU0kRAioY88x8-55">
          <mxGeometry x="80" width="130" height="36" as="geometry">
            <mxRectangle width="130" height="36" as="alternateBounds" />
          </mxGeometry>
        </mxCell>
        <mxCell id="dLjgmCrHU0kRAioY88x8-58" value="not null" style="shape=partialRectangle;html=1;whiteSpace=wrap;connectable=0;fillColor=#dae8fc;top=0;left=0;bottom=0;right=0;overflow=hidden;strokeColor=#6c8ebf;" vertex="1" parent="dLjgmCrHU0kRAioY88x8-55">
          <mxGeometry x="210" width="130" height="36" as="geometry">
            <mxRectangle width="130" height="36" as="alternateBounds" />
          </mxGeometry>
        </mxCell>
        <mxCell id="dLjgmCrHU0kRAioY88x8-59" style="shape=tableRow;horizontal=0;startSize=0;swimlaneHead=0;swimlaneBody=0;top=0;left=0;bottom=0;right=0;collapsible=0;dropTarget=0;fillColor=none;points=[[0,0.5],[1,0.5]];portConstraint=eastwest;" vertex="1" parent="dLjgmCrHU0kRAioY88x8-46">
          <mxGeometry y="137" width="340" height="37" as="geometry" />
        </mxCell>
        <mxCell id="dLjgmCrHU0kRAioY88x8-60" value="budget_date" style="shape=partialRectangle;html=1;whiteSpace=wrap;connectable=0;fillColor=#dae8fc;top=0;left=0;bottom=0;right=0;overflow=hidden;strokeColor=#6c8ebf;" vertex="1" parent="dLjgmCrHU0kRAioY88x8-59">
          <mxGeometry width="80" height="37" as="geometry">
            <mxRectangle width="80" height="37" as="alternateBounds" />
          </mxGeometry>
        </mxCell>
        <mxCell id="dLjgmCrHU0kRAioY88x8-61" value="dateonly" style="shape=partialRectangle;html=1;whiteSpace=wrap;connectable=0;fillColor=#dae8fc;top=0;left=0;bottom=0;right=0;overflow=hidden;strokeColor=#6c8ebf;" vertex="1" parent="dLjgmCrHU0kRAioY88x8-59">
          <mxGeometry x="80" width="130" height="37" as="geometry">
            <mxRectangle width="130" height="37" as="alternateBounds" />
          </mxGeometry>
        </mxCell>
        <mxCell id="dLjgmCrHU0kRAioY88x8-62" value="not null" style="shape=partialRectangle;html=1;whiteSpace=wrap;connectable=0;fillColor=#dae8fc;top=0;left=0;bottom=0;right=0;overflow=hidden;strokeColor=#6c8ebf;" vertex="1" parent="dLjgmCrHU0kRAioY88x8-59">
          <mxGeometry x="210" width="130" height="37" as="geometry">
            <mxRectangle width="130" height="37" as="alternateBounds" />
          </mxGeometry>
        </mxCell>
        <mxCell id="dLjgmCrHU0kRAioY88x8-67" style="edgeStyle=orthogonalEdgeStyle;rounded=0;orthogonalLoop=1;jettySize=auto;html=1;entryX=0;entryY=0.5;entryDx=0;entryDy=0;startArrow=oval;startFill=0;endArrow=ERmany;endFill=0;" edge="1" parent="1" source="dLjgmCrHU0kRAioY88x8-26" target="dLjgmCrHU0kRAioY88x8-51">
          <mxGeometry relative="1" as="geometry">
            <Array as="points">
              <mxPoint x="400" y="88" />
              <mxPoint x="400" y="124" />
            </Array>
          </mxGeometry>
        </mxCell>
        <mxCell id="dLjgmCrHU0kRAioY88x8-109" style="edgeStyle=orthogonalEdgeStyle;rounded=0;orthogonalLoop=1;jettySize=auto;html=1;exitX=1;exitY=0.25;exitDx=0;exitDy=0;entryX=0;entryY=0.5;entryDx=0;entryDy=0;startArrow=oval;startFill=0;endArrow=ERmany;endFill=0;" edge="1" parent="1" source="dLjgmCrHU0kRAioY88x8-68" target="dLjgmCrHU0kRAioY88x8-95">
          <mxGeometry relative="1" as="geometry" />
        </mxCell>
        <mxCell id="dLjgmCrHU0kRAioY88x8-68" value="Expenses_categories" style="shape=table;startSize=30;container=1;collapsible=0;childLayout=tableLayout;fontStyle=1;align=center;fillColor=#f5f5f5;fontColor=#333333;strokeColor=#666666;" vertex="1" parent="1">
          <mxGeometry x="40" y="300" width="340" height="187" as="geometry" />
        </mxCell>
        <mxCell id="dLjgmCrHU0kRAioY88x8-69" value="" style="shape=tableRow;horizontal=0;startSize=0;swimlaneHead=0;swimlaneBody=0;top=0;left=0;bottom=0;right=0;collapsible=0;dropTarget=0;fillColor=none;points=[[0,0.5],[1,0.5]];portConstraint=eastwest;" vertex="1" parent="dLjgmCrHU0kRAioY88x8-68">
          <mxGeometry y="30" width="340" height="36" as="geometry" />
        </mxCell>
        <mxCell id="dLjgmCrHU0kRAioY88x8-70" value="expense_category_id" style="shape=partialRectangle;html=1;whiteSpace=wrap;connectable=0;fillColor=#dae8fc;top=0;left=0;bottom=0;right=0;overflow=hidden;strokeColor=#6c8ebf;" vertex="1" parent="dLjgmCrHU0kRAioY88x8-69">
          <mxGeometry width="140" height="36" as="geometry">
            <mxRectangle width="140" height="36" as="alternateBounds" />
          </mxGeometry>
        </mxCell>
        <mxCell id="dLjgmCrHU0kRAioY88x8-71" value="PK UUID" style="shape=partialRectangle;html=1;whiteSpace=wrap;connectable=0;fillColor=#dae8fc;top=0;left=0;bottom=0;right=0;overflow=hidden;strokeColor=#6c8ebf;" vertex="1" parent="dLjgmCrHU0kRAioY88x8-69">
          <mxGeometry x="140" width="70" height="36" as="geometry">
            <mxRectangle width="70" height="36" as="alternateBounds" />
          </mxGeometry>
        </mxCell>
        <mxCell id="dLjgmCrHU0kRAioY88x8-72" value="Unique, default:UUIDV4" style="shape=partialRectangle;html=1;whiteSpace=wrap;connectable=0;fillColor=#dae8fc;top=0;left=0;bottom=0;right=0;overflow=hidden;strokeColor=#6c8ebf;" vertex="1" parent="dLjgmCrHU0kRAioY88x8-69">
          <mxGeometry x="210" width="130" height="36" as="geometry">
            <mxRectangle width="130" height="36" as="alternateBounds" />
          </mxGeometry>
        </mxCell>
        <mxCell id="dLjgmCrHU0kRAioY88x8-73" value="" style="shape=tableRow;horizontal=0;startSize=0;swimlaneHead=0;swimlaneBody=0;top=0;left=0;bottom=0;right=0;collapsible=0;dropTarget=0;fillColor=none;points=[[0,0.5],[1,0.5]];portConstraint=eastwest;" vertex="1" parent="dLjgmCrHU0kRAioY88x8-68">
          <mxGeometry y="66" width="340" height="35" as="geometry" />
        </mxCell>
        <mxCell id="dLjgmCrHU0kRAioY88x8-74" value="budget_id" style="shape=partialRectangle;html=1;whiteSpace=wrap;connectable=0;fillColor=#dae8fc;top=0;left=0;bottom=0;right=0;overflow=hidden;strokeColor=#6c8ebf;" vertex="1" parent="dLjgmCrHU0kRAioY88x8-73">
          <mxGeometry width="140" height="35" as="geometry">
            <mxRectangle width="140" height="35" as="alternateBounds" />
          </mxGeometry>
        </mxCell>
        <mxCell id="dLjgmCrHU0kRAioY88x8-75" value="FK UUID" style="shape=partialRectangle;html=1;whiteSpace=wrap;connectable=0;fillColor=#dae8fc;top=0;left=0;bottom=0;right=0;overflow=hidden;strokeColor=#6c8ebf;" vertex="1" parent="dLjgmCrHU0kRAioY88x8-73">
          <mxGeometry x="140" width="70" height="35" as="geometry">
            <mxRectangle width="70" height="35" as="alternateBounds" />
          </mxGeometry>
        </mxCell>
        <mxCell id="dLjgmCrHU0kRAioY88x8-76" value="not null" style="shape=partialRectangle;html=1;whiteSpace=wrap;connectable=0;fillColor=#dae8fc;top=0;left=0;bottom=0;right=0;overflow=hidden;strokeColor=#6c8ebf;" vertex="1" parent="dLjgmCrHU0kRAioY88x8-73">
          <mxGeometry x="210" width="130" height="35" as="geometry">
            <mxRectangle width="130" height="35" as="alternateBounds" />
          </mxGeometry>
        </mxCell>
        <mxCell id="dLjgmCrHU0kRAioY88x8-77" value="" style="shape=tableRow;horizontal=0;startSize=0;swimlaneHead=0;swimlaneBody=0;top=0;left=0;bottom=0;right=0;collapsible=0;dropTarget=0;fillColor=none;points=[[0,0.5],[1,0.5]];portConstraint=eastwest;" vertex="1" parent="dLjgmCrHU0kRAioY88x8-68">
          <mxGeometry y="101" width="340" height="49" as="geometry" />
        </mxCell>
        <mxCell id="dLjgmCrHU0kRAioY88x8-78" value="category_name" style="shape=partialRectangle;html=1;whiteSpace=wrap;connectable=0;fillColor=#dae8fc;top=0;left=0;bottom=0;right=0;overflow=hidden;strokeColor=#6c8ebf;" vertex="1" parent="dLjgmCrHU0kRAioY88x8-77">
          <mxGeometry width="140" height="49" as="geometry">
            <mxRectangle width="140" height="49" as="alternateBounds" />
          </mxGeometry>
        </mxCell>
        <mxCell id="dLjgmCrHU0kRAioY88x8-79" value="STRING" style="shape=partialRectangle;html=1;whiteSpace=wrap;connectable=0;fillColor=#dae8fc;top=0;left=0;bottom=0;right=0;overflow=hidden;strokeColor=#6c8ebf;" vertex="1" parent="dLjgmCrHU0kRAioY88x8-77">
          <mxGeometry x="140" width="70" height="49" as="geometry">
            <mxRectangle width="70" height="49" as="alternateBounds" />
          </mxGeometry>
        </mxCell>
        <mxCell id="dLjgmCrHU0kRAioY88x8-80" value="not null" style="shape=partialRectangle;html=1;whiteSpace=wrap;connectable=0;fillColor=#dae8fc;top=0;left=0;bottom=0;right=0;overflow=hidden;strokeColor=#6c8ebf;" vertex="1" parent="dLjgmCrHU0kRAioY88x8-77">
          <mxGeometry x="210" width="130" height="49" as="geometry">
            <mxRectangle width="130" height="49" as="alternateBounds" />
          </mxGeometry>
        </mxCell>
        <mxCell id="dLjgmCrHU0kRAioY88x8-81" style="shape=tableRow;horizontal=0;startSize=0;swimlaneHead=0;swimlaneBody=0;top=0;left=0;bottom=0;right=0;collapsible=0;dropTarget=0;fillColor=none;points=[[0,0.5],[1,0.5]];portConstraint=eastwest;" vertex="1" parent="dLjgmCrHU0kRAioY88x8-68">
          <mxGeometry y="150" width="340" height="37" as="geometry" />
        </mxCell>
        <mxCell id="dLjgmCrHU0kRAioY88x8-82" value="set_amount" style="shape=partialRectangle;html=1;whiteSpace=wrap;connectable=0;fillColor=#dae8fc;top=0;left=0;bottom=0;right=0;overflow=hidden;strokeColor=#6c8ebf;" vertex="1" parent="dLjgmCrHU0kRAioY88x8-81">
          <mxGeometry width="140" height="37" as="geometry">
            <mxRectangle width="140" height="37" as="alternateBounds" />
          </mxGeometry>
        </mxCell>
        <mxCell id="dLjgmCrHU0kRAioY88x8-83" value="INTEGER" style="shape=partialRectangle;html=1;whiteSpace=wrap;connectable=0;fillColor=#dae8fc;top=0;left=0;bottom=0;right=0;overflow=hidden;strokeColor=#6c8ebf;" vertex="1" parent="dLjgmCrHU0kRAioY88x8-81">
          <mxGeometry x="140" width="70" height="37" as="geometry">
            <mxRectangle width="70" height="37" as="alternateBounds" />
          </mxGeometry>
        </mxCell>
        <mxCell id="dLjgmCrHU0kRAioY88x8-84" value="not null" style="shape=partialRectangle;html=1;whiteSpace=wrap;connectable=0;fillColor=#dae8fc;top=0;left=0;bottom=0;right=0;overflow=hidden;strokeColor=#6c8ebf;" vertex="1" parent="dLjgmCrHU0kRAioY88x8-81">
          <mxGeometry x="210" width="130" height="37" as="geometry">
            <mxRectangle width="130" height="37" as="alternateBounds" />
          </mxGeometry>
        </mxCell>
        <mxCell id="dLjgmCrHU0kRAioY88x8-89" style="edgeStyle=orthogonalEdgeStyle;rounded=0;orthogonalLoop=1;jettySize=auto;html=1;startArrow=oval;startFill=0;endArrow=ERmany;endFill=0;entryX=0;entryY=0.5;entryDx=0;entryDy=0;" edge="1" parent="1" source="dLjgmCrHU0kRAioY88x8-47" target="dLjgmCrHU0kRAioY88x8-73">
          <mxGeometry relative="1" as="geometry">
            <Array as="points">
              <mxPoint x="450" y="88" />
              <mxPoint x="450" y="270" />
              <mxPoint x="20" y="270" />
              <mxPoint x="20" y="384" />
            </Array>
          </mxGeometry>
        </mxCell>
        <mxCell id="dLjgmCrHU0kRAioY88x8-90" value="transactions" style="shape=table;startSize=30;container=1;collapsible=0;childLayout=tableLayout;fontStyle=1;align=center;fillColor=#f5f5f5;fontColor=#333333;strokeColor=#666666;" vertex="1" parent="1">
          <mxGeometry x="480" y="320" width="340" height="196" as="geometry" />
        </mxCell>
        <mxCell id="dLjgmCrHU0kRAioY88x8-91" value="" style="shape=tableRow;horizontal=0;startSize=0;swimlaneHead=0;swimlaneBody=0;top=0;left=0;bottom=0;right=0;collapsible=0;dropTarget=0;fillColor=none;points=[[0,0.5],[1,0.5]];portConstraint=eastwest;" vertex="1" parent="dLjgmCrHU0kRAioY88x8-90">
          <mxGeometry y="30" width="340" height="36" as="geometry" />
        </mxCell>
        <mxCell id="dLjgmCrHU0kRAioY88x8-92" value="transaction_id" style="shape=partialRectangle;html=1;whiteSpace=wrap;connectable=0;fillColor=#dae8fc;top=0;left=0;bottom=0;right=0;overflow=hidden;strokeColor=#6c8ebf;" vertex="1" parent="dLjgmCrHU0kRAioY88x8-91">
          <mxGeometry width="140" height="36" as="geometry">
            <mxRectangle width="140" height="36" as="alternateBounds" />
          </mxGeometry>
        </mxCell>
        <mxCell id="dLjgmCrHU0kRAioY88x8-93" value="PK UUID" style="shape=partialRectangle;html=1;whiteSpace=wrap;connectable=0;fillColor=#dae8fc;top=0;left=0;bottom=0;right=0;overflow=hidden;strokeColor=#6c8ebf;" vertex="1" parent="dLjgmCrHU0kRAioY88x8-91">
          <mxGeometry x="140" width="70" height="36" as="geometry">
            <mxRectangle width="70" height="36" as="alternateBounds" />
          </mxGeometry>
        </mxCell>
        <mxCell id="dLjgmCrHU0kRAioY88x8-94" value="Unique, default:UUIDV4" style="shape=partialRectangle;html=1;whiteSpace=wrap;connectable=0;fillColor=#dae8fc;top=0;left=0;bottom=0;right=0;overflow=hidden;strokeColor=#6c8ebf;" vertex="1" parent="dLjgmCrHU0kRAioY88x8-91">
          <mxGeometry x="210" width="130" height="36" as="geometry">
            <mxRectangle width="130" height="36" as="alternateBounds" />
          </mxGeometry>
        </mxCell>
        <mxCell id="dLjgmCrHU0kRAioY88x8-95" value="" style="shape=tableRow;horizontal=0;startSize=0;swimlaneHead=0;swimlaneBody=0;top=0;left=0;bottom=0;right=0;collapsible=0;dropTarget=0;fillColor=none;points=[[0,0.5],[1,0.5]];portConstraint=eastwest;" vertex="1" parent="dLjgmCrHU0kRAioY88x8-90">
          <mxGeometry y="66" width="340" height="44" as="geometry" />
        </mxCell>
        <mxCell id="dLjgmCrHU0kRAioY88x8-96" value="&lt;div&gt;parent_id (budget_id or exp_cat_id)&lt;br&gt;&lt;/div&gt;" style="shape=partialRectangle;html=1;whiteSpace=wrap;connectable=0;fillColor=#dae8fc;top=0;left=0;bottom=0;right=0;overflow=hidden;strokeColor=#6c8ebf;" vertex="1" parent="dLjgmCrHU0kRAioY88x8-95">
          <mxGeometry width="140" height="44" as="geometry">
            <mxRectangle width="140" height="44" as="alternateBounds" />
          </mxGeometry>
        </mxCell>
        <mxCell id="dLjgmCrHU0kRAioY88x8-97" value="FK UUID" style="shape=partialRectangle;html=1;whiteSpace=wrap;connectable=0;fillColor=#dae8fc;top=0;left=0;bottom=0;right=0;overflow=hidden;strokeColor=#6c8ebf;" vertex="1" parent="dLjgmCrHU0kRAioY88x8-95">
          <mxGeometry x="140" width="70" height="44" as="geometry">
            <mxRectangle width="70" height="44" as="alternateBounds" />
          </mxGeometry>
        </mxCell>
        <mxCell id="dLjgmCrHU0kRAioY88x8-98" value="not null" style="shape=partialRectangle;html=1;whiteSpace=wrap;connectable=0;fillColor=#dae8fc;top=0;left=0;bottom=0;right=0;overflow=hidden;strokeColor=#6c8ebf;" vertex="1" parent="dLjgmCrHU0kRAioY88x8-95">
          <mxGeometry x="210" width="130" height="44" as="geometry">
            <mxRectangle width="130" height="44" as="alternateBounds" />
          </mxGeometry>
        </mxCell>
        <mxCell id="dLjgmCrHU0kRAioY88x8-99" value="" style="shape=tableRow;horizontal=0;startSize=0;swimlaneHead=0;swimlaneBody=0;top=0;left=0;bottom=0;right=0;collapsible=0;dropTarget=0;fillColor=none;points=[[0,0.5],[1,0.5]];portConstraint=eastwest;" vertex="1" parent="dLjgmCrHU0kRAioY88x8-90">
          <mxGeometry y="110" width="340" height="49" as="geometry" />
        </mxCell>
        <mxCell id="dLjgmCrHU0kRAioY88x8-100" value="type" style="shape=partialRectangle;html=1;whiteSpace=wrap;connectable=0;fillColor=#dae8fc;top=0;left=0;bottom=0;right=0;overflow=hidden;strokeColor=#6c8ebf;" vertex="1" parent="dLjgmCrHU0kRAioY88x8-99">
          <mxGeometry width="140" height="49" as="geometry">
            <mxRectangle width="140" height="49" as="alternateBounds" />
          </mxGeometry>
        </mxCell>
        <mxCell id="dLjgmCrHU0kRAioY88x8-101" value="Enum (&#39;expense&#39;, &#39;income&#39;)" style="shape=partialRectangle;html=1;whiteSpace=wrap;connectable=0;fillColor=#dae8fc;top=0;left=0;bottom=0;right=0;overflow=hidden;strokeColor=#6c8ebf;" vertex="1" parent="dLjgmCrHU0kRAioY88x8-99">
          <mxGeometry x="140" width="70" height="49" as="geometry">
            <mxRectangle width="70" height="49" as="alternateBounds" />
          </mxGeometry>
        </mxCell>
        <mxCell id="dLjgmCrHU0kRAioY88x8-102" value="not null" style="shape=partialRectangle;html=1;whiteSpace=wrap;connectable=0;fillColor=#dae8fc;top=0;left=0;bottom=0;right=0;overflow=hidden;strokeColor=#6c8ebf;" vertex="1" parent="dLjgmCrHU0kRAioY88x8-99">
          <mxGeometry x="210" width="130" height="49" as="geometry">
            <mxRectangle width="130" height="49" as="alternateBounds" />
          </mxGeometry>
        </mxCell>
        <mxCell id="dLjgmCrHU0kRAioY88x8-103" style="shape=tableRow;horizontal=0;startSize=0;swimlaneHead=0;swimlaneBody=0;top=0;left=0;bottom=0;right=0;collapsible=0;dropTarget=0;fillColor=none;points=[[0,0.5],[1,0.5]];portConstraint=eastwest;" vertex="1" parent="dLjgmCrHU0kRAioY88x8-90">
          <mxGeometry y="159" width="340" height="37" as="geometry" />
        </mxCell>
        <mxCell id="dLjgmCrHU0kRAioY88x8-104" value="amount" style="shape=partialRectangle;html=1;whiteSpace=wrap;connectable=0;fillColor=#dae8fc;top=0;left=0;bottom=0;right=0;overflow=hidden;strokeColor=#6c8ebf;" vertex="1" parent="dLjgmCrHU0kRAioY88x8-103">
          <mxGeometry width="140" height="37" as="geometry">
            <mxRectangle width="140" height="37" as="alternateBounds" />
          </mxGeometry>
        </mxCell>
        <mxCell id="dLjgmCrHU0kRAioY88x8-105" value="INTEGER" style="shape=partialRectangle;html=1;whiteSpace=wrap;connectable=0;fillColor=#dae8fc;top=0;left=0;bottom=0;right=0;overflow=hidden;strokeColor=#6c8ebf;" vertex="1" parent="dLjgmCrHU0kRAioY88x8-103">
          <mxGeometry x="140" width="70" height="37" as="geometry">
            <mxRectangle width="70" height="37" as="alternateBounds" />
          </mxGeometry>
        </mxCell>
        <mxCell id="dLjgmCrHU0kRAioY88x8-106" value="not null" style="shape=partialRectangle;html=1;whiteSpace=wrap;connectable=0;fillColor=#dae8fc;top=0;left=0;bottom=0;right=0;overflow=hidden;strokeColor=#6c8ebf;" vertex="1" parent="dLjgmCrHU0kRAioY88x8-103">
          <mxGeometry x="210" width="130" height="37" as="geometry">
            <mxRectangle width="130" height="37" as="alternateBounds" />
          </mxGeometry>
        </mxCell>
        <mxCell id="dLjgmCrHU0kRAioY88x8-108" style="edgeStyle=orthogonalEdgeStyle;rounded=0;orthogonalLoop=1;jettySize=auto;html=1;exitX=1;exitY=0.5;exitDx=0;exitDy=0;startArrow=oval;startFill=0;endArrow=ERmany;endFill=0;" edge="1" parent="1" source="dLjgmCrHU0kRAioY88x8-47" target="dLjgmCrHU0kRAioY88x8-95">
          <mxGeometry relative="1" as="geometry" />
        </mxCell>
      </root>
    </mxGraphModel>
  </diagram>
</mxfile>
